<svg xmlns="http://www.w3.org/2000/svg" xmlns:xlink="http://www.w3.org/1999/xlink" width="1080" zoomAndPan="magnify" viewBox="0 0 810 809.999993" height="1080" preserveAspectRatio="xMidYMid meet" version="1.0"><defs><clipPath id="082d2af303"><path d="M 100.316406 100.316406 L 709.6875 100.316406 L 709.6875 709.6875 L 100.316406 709.6875 Z M 100.316406 100.316406 " clip-rule="nonzero"/></clipPath><clipPath id="bf117c0771"><path d="M 405 100.316406 C 236.726562 100.316406 100.316406 236.726562 100.316406 405 C 100.316406 573.273438 236.726562 709.6875 405 709.6875 C 573.273438 709.6875 709.683594 573.273438 709.683594 405 C 709.683594 236.726562 573.273438 100.316406 405 100.316406 Z M 405 100.316406 " clip-rule="nonzero"/></clipPath></defs><g clip-path="url(#082d2af303)"><g clip-path="url(#bf117c0771)"><path fill="#e46719" d="M 100.316406 100.316406 L 709.6875 100.316406 L 709.6875 709.6875 L 100.316406 709.6875 Z M 100.316406 100.316406 " fill-opacity="1" fill-rule="nonzero"/></g></g><path fill="#000000" d="M 409.820312 800.839844 L 407.519531 798.984375 L 390.230469 745.488281 L 381.609375 723.199219 L 363.371094 678.617188 L 330.40625 613.234375 L 314.339844 586.488281 L 286.367188 544.878906 L 262.21875 513.703125 L 226.507812 478.007812 L 201.292969 458.367188 L 180.492188 444.925781 L 163.667969 435.835938 L 138.886719 425.773438 L 116.28125 418.789062 L 153.742188 393.660156 L 171.574219 379.503906 L 189.648438 360.617188 L 200.722656 343.902344 L 209.410156 322.558594 L 212.851562 302.789062 L 212.023438 287.089844 L 211.195312 271.394531 L 203.339844 238.765625 L 193.28125 208.371094 L 186.917969 192.363281 L 180.554688 176.351562 L 159.136719 132.707031 L 145.136719 107.996094 L 136.148438 93.136719 L 113.703125 57.472656 L 74.03125 -1.503906 L 75.167969 -2.640625 L 107.679688 21.835938 L 128.484375 37.945312 L 173.0625 75.210938 L 216.152344 113.6875 L 247.359375 142.160156 L 296.484375 191.214844 L 314.421875 210.53125 L 345.5625 247.679688 L 360.382812 268.484375 L 365.90625 276.910156 L 371.433594 285.335938 L 371.433594 287.492188 L 355.832031 272.824219 L 331.730469 254.554688 L 294.148438 229.136719 L 274.101562 219.074219 L 251.28125 209.960938 L 245.976562 208.96875 L 240.667969 207.972656 L 240.667969 209.703125 L 248.335938 226.878906 L 257.105469 250.652344 L 259.289062 263.105469 L 261.472656 275.5625 L 261.460938 299.691406 L 257.015625 327.101562 L 248.371094 348.859375 L 233.417969 374.851562 L 220.828125 390.335938 L 204.648438 407.128906 L 206.320312 409.832031 L 232.496094 425.71875 L 256.273438 444.167969 L 278.722656 464.636719 L 307.816406 496.410156 L 323.976562 516.644531 L 345.902344 547.851562 L 366.417969 580.542969 L 383.933594 611.75 L 395.285156 632.554688 L 400.214844 642.210938 L 424.605469 642.210938 L 444.644531 605.804688 L 471.457031 561.226562 L 486.1875 538.9375 L 504.292969 513.671875 L 531.375 480.980469 L 560.886719 451.023438 L 586.148438 431.007812 L 620.324219 408.203125 L 621.117188 407.871094 L 602.203125 388.289062 L 583.664062 361.222656 L 571.789062 335.886719 L 568.007812 320.757812 L 564.222656 305.632812 L 564.109375 271.457031 L 568.027344 256.59375 L 571.945312 241.734375 L 585.40625 209.289062 L 584.03125 207.917969 L 569.804688 211.410156 L 548.6875 220.09375 L 526.710938 232.421875 L 510.367188 243.046875 L 471.730469 271.03125 L 454.644531 287.710938 L 454.644531 285.03125 L 476.867188 251.9375 L 516.128906 204.585938 L 590.609375 130.566406 L 624.558594 100.566406 L 666.390625 63.769531 L 714.34375 24.78125 L 731.773438 11.265625 L 751.832031 -2.96875 L 751.832031 -1.546875 L 700.480469 75.304688 L 685.117188 100.570312 L 666.566406 133.261719 L 654.988281 155.550781 L 641.417969 185.269531 L 632.828125 207.558594 L 627.90625 222.421875 L 622.984375 237.28125 L 620.539062 245.585938 L 618.097656 253.890625 L 615.878906 268.617188 L 613.660156 283.347656 L 613.648438 294.371094 L 613.640625 305.394531 L 617.035156 324.953125 L 627.007812 346.859375 L 633.539062 355.96875 L 640.074219 365.078125 L 664.902344 389.140625 L 708.988281 418.074219 L 708.238281 418.828125 L 707.484375 419.578125 L 672.332031 431.316406 L 646.007812 444.742188 L 627.136719 456.207031 L 603.980469 473.507812 L 573.144531 503.277344 L 548.761719 532.996094 L 526.65625 562.714844 L 509.855469 589.464844 L 488.714844 626.613281 L 459.492188 686.054688 L 452.671875 702.398438 L 445.847656 718.746094 L 435.65625 745.492188 L 423.8125 781.15625 L 417.410156 802.703125 L 412.121094 802.703125 L 409.816406 800.847656 Z M 336.878906 463.761719 L 331.300781 462.445312 L 316.875 455.136719 L 292.640625 432.339844 L 274.714844 408.546875 L 276.105469 407.15625 L 293.421875 410.914062 L 318.226562 423.851562 L 335.488281 435.574219 L 344.664062 446.707031 L 349.578125 461.660156 L 350.261719 463.515625 L 350.949219 465.375 L 342.457031 465.078125 Z M 477.679688 460.546875 L 478.664062 455.714844 L 481.398438 444.972656 L 495.507812 431.773438 L 514.5625 420.605469 L 534.140625 411.589844 L 550.230469 405.925781 L 550.734375 406.433594 L 551.238281 406.9375 L 527.566406 438.230469 L 511.210938 453.179688 L 497.378906 460.910156 L 482.339844 465.375 L 476.699219 465.375 Z M 477.679688 460.546875 " fill-opacity="1" fill-rule="nonzero"/></svg>