<svg width="100" height="100" xmlns="http://www.w3.org/2000/svg" fill="none">
 <g>
  <title>Home</title>
  <ellipse transform="matrix(0.24909, -0.0562665, 0.0557264, 0.251504, -3.53927, 79.7882)" fill="#FFCCD8" cx="304.66118" cy="-82.81833" id="svg_11"/>
  <ellipse transform="matrix(0.24909, -0.0562665, 0.0557264, 0.251504, -3.53927, 79.7882)" fill="none" stroke="#FF0000" stroke-width="2" cx="394.37376" cy="-172.20593" id="svg_45" rx="8.36042" ry="0.8501"/>
  <path d="m86.29534,15.23967c-8.88998,-0.85899 -16.97917,2.82899 -19.31699,12.55557c-2.6492,10.34047 3.39928,18.88733 0.32546,27.84786c-3.2416,9.42792 -15.04043,11.05763 -20.71783,16.55855c-3.32226,3.19703 -8.53992,7.38904 -9.54852,11.90554c-0.63289,2.65122 -5.30209,10.48851 -3.91484,9.08727c4.37628,-4.38333 11.06755,-10.6153 13.29168,-19.75015c1.27467,-6.41949 2.83148,-19.5782 4.16101,-28.51484m4.65121,-25.0694c1.77669,-4.05256 4.13844,-7.32865 7.30309,-9.24313c2.24347,-1.35721 4.93604,-2.6409 9.25826,-2.76719c5.7789,-0.16785 9.85927,5.02609 15.75168,5.62524" stroke="#ff0000" stroke-width="4" fill="none" id="svg_1"/>
  <path d="m86.65128,15.15927c-8.88998,-0.85899 -16.97917,2.82899 -19.31699,12.55557c-2.6492,10.34047 3.39928,18.88733 0.32546,27.84786c-3.2416,9.42792 -15.04043,11.05763 -20.71783,16.55855c-3.32226,3.19703 -8.53992,7.38904 -9.54852,11.90554c-0.63289,2.65122 -5.30209,10.48851 -3.91484,9.08727c4.37628,-4.38333 11.06755,-10.6153 13.29168,-19.75015c1.27467,-6.41949 2.83148,-19.5782 4.16101,-28.51484m4.65121,-25.0694c1.77669,-4.05256 4.13844,-7.32865 7.30309,-9.24313c2.24347,-1.35721 4.93604,-2.6409 9.25826,-2.76719c5.7789,-0.16785 9.85927,5.02609 15.75168,5.62524" fill="#FFCCD8" id="svg_2"/>
  <path d="m52.97709,27.32886c-0.56069,-14.1512 -66.74305,-28.22785 -48.4578,-6.04025c7.00797,8.50238 17.45843,2.39313 24.0791,7.0179c0.06808,0.04747 -3.34982,3.1148 -3.59423,3.64295c-2.79538,6.06309 9.03632,3.08821 11.49061,2.78367" stroke="#FF0000" stroke-width="4" fill="none" id="svg_3"/>
  <path d="m52.97709,27.32886c-0.56069,-14.1512 -66.74305,-28.22785 -48.4578,-6.04025c7.00797,8.50238 17.45843,2.39313 24.0791,7.0179c0.06808,0.04747 -3.34982,3.1148 -3.59423,3.64295c-2.79538,6.06309 9.03632,3.08821 11.49061,2.78367" fill="#FF8C94" id="svg_4"/>
  <circle cx="165.9906" cy="-114.68214" r="10.80637" stroke="#FF0000" stroke-width="2" fill="none" id="svg_5" transform="matrix(0.294776, -0.0466432, 0.0499235, 0.310627, -2.55883, 76.5668)"/>
  <circle transform="matrix(0.24909, -0.0562665, 0.0557264, 0.251504, -3.53927, 79.7882)" cx="208.20154" cy="-138.40779" r="9.12219" fill="#000000" id="svg_6"/>
  <ellipse fill="#FFCCD8" cx="429.89049" cy="-50.76895" id="svg_9" rx="42.67916" ry="10.84179" transform="matrix(0.182152, -0.150622, 0.146481, 0.195747, -12.2535, 113.411)"/>
  <ellipse transform="matrix(0.24909, -0.0562665, 0.0557264, 0.251504, -3.53927, 79.7882)" fill="#FFCCD8" cx="290.05269" cy="-100.66046" id="svg_12" rx="0.24688"/>
  <ellipse fill="#FFCCD8" cx="358.80534" cy="-191.51219" id="svg_13" rx="45.53398" ry="8.61915" transform="matrix(0.225822, -0.0586288, 0.0603373, 0.23993, -3.60422, 84.3707)"/>
  <line fill="none" x1="86.82575" y1="12.91525" x2="100.73453" y2="15.25992" id="svg_19" stroke="#ff0000"/>
  <line fill="none" stroke="#ff0000" x1="85.79097" y1="15.79777" x2="100.8183" y2="15.25787" id="svg_20"/>
  <line fill="none" stroke="#ff0000" x1="81.48718" y1="14.76672" x2="87.66978" y2="13.32006" id="svg_23"/>
  <line fill="none" stroke="#ff0000" x1="85.17219" y1="14.79078" x2="86.47817" y2="15.47876" id="svg_28"/>
  <line fill="none" stroke="#ff0000" x1="87.58441" y1="13.2629" x2="99.19007" y2="15.18177" id="svg_29"/>
  <line fill="none" stroke="#ff0000" x1="85.82195" y1="15.53726" x2="98.18246" y2="15.16086" id="svg_32"/>
  <line fill="none" stroke="#ff0000" x1="86.20425" y1="15.24084" x2="87.8849" y2="13.39078" id="svg_34"/>
  <line fill="none" stroke="#ff0000" x1="83.40377" y1="14.50804" x2="86.44865" y2="13.87275" id="svg_35"/>
  <path fill="none" stroke="#ff0000" stroke-width="3" id="svg_38" d="m85.73144,14.45488c0.04741,-0.01071 0.04741,-0.01071 0.04741,-0.01071c0,0 0.0474,-0.01071 0.0474,-0.01071c0,0 0.04741,-0.01071 0.04741,-0.01071c0,0 0.0474,-0.01071 0.0474,-0.01071c0.01108,0.05001 0.05849,0.0393 0.05849,0.0393c0,0 0.01108,0.05001 0.01108,0.05001c0.0474,-0.01071 0.05848,0.0393 0.05848,0.0393c0,0 0,0 0.01108,0.05001c0,0 0,0 0,0c0,0 0.04741,-0.01071 0.04741,-0.01071l-0.01108,-0.05001l0,0"/>
  <polyline fill="none" stroke="#ff0000" stroke-width="3" points="86.07434810694144,14.42994201602562 86.07434810694144,14.42994201602562 " id="svg_39" stroke-linecap="round"/>
  <ellipse transform="matrix(0.24909, -0.0562665, 0.0557264, 0.251504, -3.53927, 79.7882)" fill="none" stroke="#ff0000" stroke-width="3" cx="396.65116" cy="-171.62835" id="svg_42" rx="3.99641" ry="0.3977"/>
 </g>
</svg>